<svg width="80" height="80" viewBox="0 0 80 80" fill="none" xmlns="http://www.w3.org/2000/svg">
<g id="Group 11">
<path id="Vector" d="M39.8977 28.0194C33.2286 28.0194 27.8492 33.4052 27.8492 40.0822C27.8492 46.7593 33.2286 52.1451 39.8977 52.1451C46.5668 52.1451 51.9461 46.7593 51.9461 40.0822C51.9461 33.4052 46.5668 28.0194 39.8977 28.0194ZM39.8977 47.9247C35.5879 47.9247 32.0646 44.4076 32.0646 40.0822C32.0646 35.7568 35.5774 32.2398 39.8977 32.2398C44.2179 32.2398 47.7307 35.7568 47.7307 40.0822C47.7307 44.4076 44.2074 47.9247 39.8977 47.9247ZM55.2492 27.526C55.2492 29.0903 53.9909 30.3396 52.4389 30.3396C50.8765 30.3396 49.6287 29.0798 49.6287 27.526C49.6287 25.9722 50.887 24.7124 52.4389 24.7124C53.9909 24.7124 55.2492 25.9722 55.2492 27.526ZM63.2291 30.3816C63.0508 26.6126 62.1909 23.2741 59.4331 20.5234C56.6858 17.7728 53.3512 16.9119 49.5868 16.723C45.7069 16.5025 34.0779 16.5025 30.1981 16.723C26.4441 16.9014 23.1095 17.7623 20.3517 20.5129C17.5939 23.2636 16.7445 26.6021 16.5558 30.3711C16.3356 34.2556 16.3356 45.8984 16.5558 49.7829C16.734 53.5519 17.5939 56.8904 20.3517 59.641C23.1095 62.3917 26.4336 63.2525 30.1981 63.4415C34.0779 63.662 45.7069 63.662 49.5868 63.4415C53.3512 63.263 56.6858 62.4022 59.4331 59.641C62.1805 56.8904 63.0403 53.5519 63.2291 49.7829C63.4493 45.8984 63.4493 34.266 63.2291 30.3816ZM58.2167 53.9508C57.3988 56.0085 55.8154 57.5938 53.7497 58.4232C50.6563 59.6515 43.3161 59.3681 39.8977 59.3681C36.4792 59.3681 29.1285 59.641 26.0456 58.4232C23.9904 57.6043 22.407 56.019 21.5786 53.9508C20.3517 50.8538 20.6348 43.5048 20.6348 40.0822C20.6348 36.6597 20.3622 29.3002 21.5786 26.2137C22.3965 24.1559 23.9799 22.5707 26.0456 21.7413C29.139 20.5129 36.4792 20.7964 39.8977 20.7964C43.3161 20.7964 50.6668 20.5234 53.7497 21.7413C55.805 22.5602 57.3883 24.1454 58.2167 26.2137C59.4436 29.3107 59.1605 36.6597 59.1605 40.0822C59.1605 43.5048 59.4436 50.8643 58.2167 53.9508Z" fill="#232323"/>
<rect id="Rectangle 27" x="4.5" y="4.5" width="71" height="71" rx="17.5" stroke="#00555B" stroke-width="9"/>
</g>
</svg>
