<svg width="80" height="80" viewBox="0 0 80 80" fill="none" xmlns="http://www.w3.org/2000/svg">
<g id="Group 12">
<path id="Vector" d="M17.3438 18.9356C17.3438 17.0773 18.8174 15.576 20.6414 15.576C44.3228 15.576 63.5112 35.1243 63.5112 59.25C63.5112 61.1083 62.0375 62.6096 60.2135 62.6096C58.3895 62.6096 56.9158 61.1083 56.9158 59.25C56.9158 38.8408 40.6748 22.2951 20.6414 22.2951C18.8174 22.2951 17.3438 20.7938 17.3438 18.9356ZM17.3438 55.8905C17.3438 54.1085 18.0386 52.3995 19.2755 51.1394C20.5123 49.8793 22.1899 49.1714 23.9391 49.1714C25.6883 49.1714 27.3658 49.8793 28.6027 51.1394C29.8396 52.3995 30.5344 54.1085 30.5344 55.8905C30.5344 57.6725 29.8396 59.3815 28.6027 60.6416C27.3658 61.9016 25.6883 62.6096 23.9391 62.6096C22.1899 62.6096 20.5123 61.9016 19.2755 60.6416C18.0386 59.3815 17.3438 57.6725 17.3438 55.8905ZM20.6414 29.0142C37.037 29.0142 50.3205 42.5468 50.3205 59.25C50.3205 61.1083 48.8468 62.6096 47.0228 62.6096C45.1988 62.6096 43.7251 61.1083 43.7251 59.25C43.7251 46.2633 33.389 35.7333 20.6414 35.7333C18.8174 35.7333 17.3438 34.232 17.3438 32.3737C17.3438 30.5155 18.8174 29.0142 20.6414 29.0142Z" fill="#232323"/>
<rect id="Rectangle 27" x="4.5" y="4.5" width="71" height="71" rx="17.5" stroke="#00555B" stroke-width="9"/>
</g>
</svg>
