<svg width="80" height="80" viewBox="0 0 80 80" fill="none" xmlns="http://www.w3.org/2000/svg">
<g id="Group 10">
<g id="Group">
<path id="Vector" d="M23.2476 23.1951C25.854 23.1951 27.9669 21.0705 27.9669 18.4497C27.9669 15.8289 25.854 13.7043 23.2476 13.7043C20.6412 13.7043 18.5283 15.8289 18.5283 18.4497C18.5283 21.0705 20.6412 23.1951 23.2476 23.1951Z" fill="#232323"/>
<path id="Vector_2" d="M18.5283 30.3132H27.9669V59.9719H18.5283V30.3132Z" fill="#232323"/>
<path id="Vector_3" d="M45.664 59.9719H37.4053V43.363C37.4053 36.1558 43.2158 30.3132 50.3833 30.3132C57.5509 30.3132 63.3614 36.1558 63.3614 43.363V59.9719H55.1026V43.1406C55.1026 40.5198 52.9897 38.3952 50.3833 38.3952C47.777 38.3952 45.664 40.5198 45.664 43.1406V59.9719Z" fill="#232323"/>
<rect id="Rectangle 27" x="4.5" y="4.5" width="71" height="71" rx="17.5" stroke="#00555B" stroke-width="9"/>
</g>
</g>
</svg>
