<svg width="80" height="80" viewBox="0 0 80 80" fill="none" xmlns="http://www.w3.org/2000/svg">
<g id="Group 8">
<path id="Vector" d="M62.9773 28.4779C62.4121 26.3177 60.7525 24.6224 58.6443 24.0482C54.8226 23 39.5 23 39.5 23C39.5 23 24.1774 23 20.3557 24.0482C18.2475 24.6224 16.5879 26.3177 16.0227 28.4779C15 32.388 15 40.5365 15 40.5365C15 40.5365 15 48.6849 16.0227 52.5951C16.5879 54.7552 18.2475 56.3776 20.3557 56.9518C24.1774 58 39.5 58 39.5 58C39.5 58 54.8226 58 58.6443 56.9518C60.7525 56.3776 62.4121 54.7461 62.9773 52.5951C64 48.6849 64 40.5365 64 40.5365C64 40.5365 64 32.388 62.9773 28.4779ZM34.4941 47.9375V33.1354L47.2959 40.5365L34.4941 47.9375Z" fill="#232323"/>
<rect id="Rectangle 27" x="4.5" y="4.5" width="71" height="71" rx="17.5" stroke="#00555B" stroke-width="9"/>
</g>
</svg>
